<?xml version="1.0" encoding="utf-8"?>
<!-- Generator: Adobe Illustrator 16.0.0, SVG Export Plug-In . SVG Version: 6.00 Build 0)  -->
<!DOCTYPE svg PUBLIC "-//W3C//DTD SVG 1.1//EN" "http://www.w3.org/Graphics/SVG/1.1/DTD/svg11.dtd">
<svg version="1.1" id="Layer_1" xmlns="http://www.w3.org/2000/svg" xmlns:xlink="http://www.w3.org/1999/xlink" x="0px" y="0px"
	 width="12.709px" height="8.186px" viewBox="0 0 12.709 8.186" enable-background="new 0 0 12.709 8.186" xml:space="preserve">
<g>
	<path fill="#CFCFCF" d="M6.354,8.186c-0.17,0-0.341-0.058-0.481-0.175C5.555,7.745,5.514,7.272,5.78,6.955l5.604-6.687
		c0.267-0.316,0.74-0.358,1.057-0.093c0.317,0.266,0.359,0.739,0.094,1.057L6.929,7.917C6.781,8.095,6.568,8.186,6.354,8.186z"/>
	<path fill="#CFCFCF" d="M6.355,8.186c-0.214,0-0.427-0.091-0.575-0.269L0.175,1.232c-0.266-0.317-0.225-0.791,0.093-1.057
		c0.318-0.267,0.79-0.225,1.057,0.093l5.604,6.687c0.266,0.317,0.225,0.79-0.093,1.057C6.696,8.128,6.525,8.186,6.355,8.186z"/>
</g>
</svg>
