<?xml version="1.0" encoding="utf-8"?>
<!-- Generator: Adobe Illustrator 16.0.0, SVG Export Plug-In . SVG Version: 6.00 Build 0)  -->
<!DOCTYPE svg PUBLIC "-//W3C//DTD SVG 1.1//EN" "http://www.w3.org/Graphics/SVG/1.1/DTD/svg11.dtd">
<svg version="1.1" id="Layer_1" xmlns="http://www.w3.org/2000/svg" xmlns:xlink="http://www.w3.org/1999/xlink" x="0px" y="0px"
	 width="37.498px" height="37.498px" viewBox="0 0 37.498 37.498" enable-background="new 0 0 37.498 37.498" xml:space="preserve">
<path fill="#FFFFFF" d="M18.749,0C8.394,0,0,8.393,0,18.748c0,10.354,8.394,18.75,18.749,18.75c10.355,0,18.749-8.396,18.749-18.75
	C37.498,8.393,29.104,0,18.749,0z M25.091,10.391c0,0.066,0,0.066-0.066,0.066c-0.695,0-1.392-0.002-2.088,0
	c-0.211,0.002-0.42,0.01-0.629,0.021c-0.24,0.014-0.473,0.061-0.699,0.137c-0.484,0.168-0.808,0.492-0.959,0.984
	c-0.094,0.303-0.125,0.613-0.125,0.927c-0.002,0.806,0,1.612,0,2.419c0,0.158,0,0.317-0.002,0.477c0,0.047,0.018,0.062,0.062,0.059
	c0.017-0.002,0.034,0,0.05,0c1.404,0,2.809,0,4.213,0c0.018,0,0.037-0.004,0.055,0.002c0.011,0.003,0.027,0.02,0.025,0.029
	c-0.008,0.081-0.02,0.162-0.031,0.242c-0.025,0.195-0.051,0.389-0.076,0.584c-0.024,0.193-0.049,0.387-0.073,0.579
	c-0.024,0.196-0.052,0.394-0.076,0.589c-0.024,0.195-0.051,0.391-0.076,0.584c-0.024,0.193-0.049,0.387-0.073,0.58
	s-0.051,0.384-0.074,0.578c-0.025,0.196-0.053,0.394-0.076,0.59c-0.01,0.076-0.006,0.076-0.083,0.076c-1.222,0-2.444,0-3.667,0
	c-0.107,0-0.098-0.013-0.098,0.096c0,3.746,0,7.49,0,11.234c0,0.021,0.004,0.039,0,0.055c-0.006,0.015-0.021,0.029-0.037,0.035
	c-0.012,0.006-0.027,0.002-0.043,0.002c-1.474,0-2.945,0-4.417,0c-0.096,0-0.083,0.004-0.083-0.084c0-3.752,0-7.506,0-11.26
	c0-0.078,0-0.078-0.079-0.078c-1.235,0-2.471,0-3.707,0c-0.021,0-0.042,0.002-0.064,0.004c0-1.48,0-2.958,0-4.439
	c0.005,0,0.01,0.002,0.015,0.002c1.26,0,2.518,0,3.777,0.001c0.051,0,0.06-0.021,0.06-0.065c-0.001-1.08-0.002-2.16,0-3.24
	c0-0.246,0.008-0.494,0.031-0.74c0.025-0.268,0.061-0.535,0.11-0.8c0.112-0.595,0.307-1.161,0.601-1.692
	c0.603-1.093,1.505-1.832,2.672-2.256c0.363-0.133,0.738-0.229,1.121-0.28c0.275-0.037,0.553-0.077,0.83-0.085
	c0.397-0.014,0.797-0.001,1.195,0.004c0.26,0.004,0.521,0.014,0.781,0.021c0.133,0.005,0.268,0.012,0.398,0.021
	c0.267,0.018,0.531,0.037,0.799,0.059c0.182,0.015,0.363,0.035,0.545,0.051c0.047,0.004,0.063,0.021,0.063,0.072
	C25.091,7.83,25.091,9.111,25.091,10.391z"/>
</svg>
