<?xml version="1.0" encoding="utf-8"?>
<!-- Generator: Adobe Illustrator 16.0.0, SVG Export Plug-In . SVG Version: 6.00 Build 0)  -->
<!DOCTYPE svg PUBLIC "-//W3C//DTD SVG 1.1//EN" "http://www.w3.org/Graphics/SVG/1.1/DTD/svg11.dtd">
<svg version="1.1" id="Layer_1" xmlns="http://www.w3.org/2000/svg" xmlns:xlink="http://www.w3.org/1999/xlink" x="0px" y="0px"
	 width="37.498px" height="37.498px" viewBox="0 0 37.498 37.498" enable-background="new 0 0 37.498 37.498" xml:space="preserve">
<path fill="#3D3D3D" d="M18.749,0C8.394,0,0,8.393,0,18.748c0,10.355,8.394,18.75,18.749,18.75s18.749-8.395,18.749-18.75
	C37.498,8.393,29.104,0,18.749,0z M25.091,10.391c0,0.066,0,0.066-0.066,0.066c-0.696,0-1.392-0.002-2.089,0
	c-0.21,0.002-0.42,0.01-0.629,0.021c-0.239,0.014-0.472,0.061-0.698,0.137c-0.485,0.168-0.808,0.492-0.959,0.984
	c-0.094,0.303-0.125,0.613-0.126,0.927c-0.002,0.806,0,1.612,0,2.419c0,0.158,0.001,0.317-0.001,0.477
	c-0.001,0.047,0.017,0.062,0.061,0.059c0.017-0.002,0.034,0,0.05,0c1.404,0,2.809,0,4.212,0c0.018,0,0.038-0.004,0.055,0.002
	c0.011,0.003,0.028,0.02,0.026,0.029c-0.008,0.081-0.02,0.162-0.031,0.242c-0.026,0.195-0.051,0.389-0.076,0.584
	c-0.025,0.193-0.05,0.387-0.074,0.579c-0.025,0.196-0.051,0.394-0.076,0.589s-0.051,0.391-0.076,0.584
	c-0.024,0.193-0.049,0.387-0.074,0.58c-0.024,0.193-0.05,0.384-0.074,0.578c-0.025,0.197-0.052,0.393-0.076,0.59
	c-0.009,0.076-0.006,0.076-0.083,0.076c-1.222,0-2.444,0-3.667,0c-0.107,0-0.097-0.012-0.097,0.096c0,3.746,0,7.49,0,11.234
	c0,0.02,0.004,0.039-0.001,0.055c-0.005,0.014-0.021,0.029-0.036,0.035c-0.012,0.006-0.028,0.002-0.044,0.002
	c-1.473,0-2.945,0-4.417,0c-0.096,0-0.083,0.004-0.083-0.084c0-3.752,0-7.506,0-11.26c0-0.078,0-0.078-0.079-0.078
	c-1.235,0-2.471,0-3.707,0c-0.021,0-0.042,0.002-0.064,0.004c0-1.48,0-2.958,0-4.439c0.005,0,0.01,0.002,0.015,0.002
	c1.26,0,2.518,0,3.777,0.001c0.051,0,0.06-0.021,0.06-0.065c-0.001-1.08-0.002-2.16,0-3.24c0-0.246,0.008-0.494,0.031-0.74
	c0.025-0.268,0.061-0.535,0.11-0.8c0.112-0.595,0.307-1.161,0.601-1.692c0.603-1.093,1.505-1.832,2.672-2.256
	c0.364-0.133,0.738-0.229,1.122-0.28c0.275-0.037,0.552-0.077,0.829-0.085c0.398-0.014,0.797-0.001,1.196,0.004
	c0.26,0.004,0.521,0.014,0.781,0.021c0.133,0.005,0.267,0.012,0.399,0.021c0.266,0.018,0.531,0.037,0.798,0.059
	c0.182,0.015,0.364,0.035,0.546,0.051c0.046,0.004,0.063,0.021,0.063,0.072C25.091,7.83,25.091,9.111,25.091,10.391z"/>
</svg>
