<?xml version="1.0" encoding="utf-8"?>
<!-- Generator: Adobe Illustrator 16.0.0, SVG Export Plug-In . SVG Version: 6.00 Build 0)  -->
<!DOCTYPE svg PUBLIC "-//W3C//DTD SVG 1.1//EN" "http://www.w3.org/Graphics/SVG/1.1/DTD/svg11.dtd">
<svg version="1.1" id="Layer_1" xmlns="http://www.w3.org/2000/svg" xmlns:xlink="http://www.w3.org/1999/xlink" x="0px" y="0px"
	 width="37.498px" height="37.498px" viewBox="0 0 37.498 37.498" enable-background="new 0 0 37.498 37.498" xml:space="preserve">
<g>
	<path fill="#FFFFFF" d="M27.433,12.855c-0.217-1-0.759-1.76-1.689-2.215c-0.758-0.371-1.571-0.5-2.402-0.52
		c-1.45-0.035-2.901-0.049-4.352-0.07c0,0.012,0,0.023,0,0.037c-1.213,0-2.424-0.012-3.635,0.002
		c-0.946,0.014-1.893,0.06-2.791,0.404c-0.916,0.352-1.562,0.967-1.893,1.902c-0.26,0.73-0.311,1.496-0.328,2.256
		c-0.046,1.973-0.078,3.948-0.064,5.921c0.009,1.248,0.009,2.502,0.267,3.732c0.182,0.869,0.625,1.57,1.396,2.045
		c0.787,0.48,1.667,0.646,2.566,0.676c2.982,0.1,5.968,0.094,8.95,0.004c0.631-0.02,1.254-0.125,1.853-0.34
		c0.97-0.344,1.655-0.973,1.999-1.961c0.234-0.674,0.278-1.373,0.314-2.068c0.119-2.328,0.119-4.656,0.047-6.984
		C27.643,14.734,27.634,13.785,27.433,12.855z M24.296,19.433c-0.277,2.318-1.543,3.926-3.766,4.676
		c-2.58,0.869-5.49-0.527-6.53-3.062c-0.286-0.695-0.446-1.416-0.433-2.023c0.008-2.501,1.453-4.556,3.648-5.33
		c2-0.707,4.291-0.104,5.719,1.516C23.999,16.418,24.487,17.844,24.296,19.433z M24.794,14.749c-0.694,0.003-1.248-0.556-1.25-1.265
		c-0.001-0.711,0.543-1.271,1.24-1.273c0.693-0.002,1.256,0.562,1.26,1.262C26.048,14.17,25.484,14.745,24.794,14.749z"/>
	<path fill="#FFFFFF" d="M18.956,15.734c-1.721-0.006-3.099,1.387-3.105,3.138c-0.008,1.736,1.381,3.174,3.086,3.166
		c1.793-0.01,3.109-1.484,3.105-3.148C22.04,17.145,20.676,15.738,18.956,15.734z"/>
	<path fill="#FFFFFF" d="M18.749,0C8.394,0,0,8.393,0,18.748c0,10.355,8.394,18.75,18.749,18.75s18.749-8.395,18.749-18.75
		C37.498,8.393,29.104,0,18.749,0z M29.926,22.367c-0.024,0.875-0.077,1.754-0.282,2.609c-0.455,1.906-1.551,3.289-3.365,4.074
		c-1.133,0.49-2.331,0.605-3.551,0.598c-1.249-0.004-2.499,0-3.749,0c0,0.01,0,0.02,0,0.029c-1.653-0.021-3.31,0.025-4.958-0.084
		c-2.104-0.141-3.836-1.027-4.965-2.895c-0.418-0.691-0.684-1.443-0.805-2.242c-0.268-1.746-0.273-3.508-0.265-5.268
		c0.007-1.513,0.017-3.029,0.077-4.541c0.03-0.791,0.105-1.592,0.277-2.361c0.4-1.803,1.453-3.113,3.152-3.877
		c0.844-0.379,1.732-0.562,2.65-0.634c2.678-0.214,5.361-0.103,8.041-0.098c0.786,0.001,1.576,0.073,2.355,0.185
		c1.693,0.244,3.16,0.93,4.189,2.361c0.531,0.738,0.852,1.57,0.99,2.465c0.277,1.784,0.268,3.584,0.263,5.382
		C29.979,19.503,29.964,20.935,29.926,22.367z"/>
</g>
</svg>
