<?xml version="1.0" encoding="utf-8"?>
<!-- Generator: Adobe Illustrator 16.0.0, SVG Export Plug-In . SVG Version: 6.00 Build 0)  -->
<!DOCTYPE svg PUBLIC "-//W3C//DTD SVG 1.1//EN" "http://www.w3.org/Graphics/SVG/1.1/DTD/svg11.dtd">
<svg version="1.1" id="Layer_1" xmlns="http://www.w3.org/2000/svg" xmlns:xlink="http://www.w3.org/1999/xlink" x="0px" y="0px"
	 width="300px" height="302.285px" viewBox="0 0 300 302.285" enable-background="new 0 0 300 302.285" xml:space="preserve">
<g>
	<g>
		<path fill="#FFFFFF" d="M94.636,50.9l1.822-4.092c1.74,1.149,4.208,1.937,6.478,1.937c2.299,0,3.196-0.646,3.196-1.599
			c0-3.115-11.16-0.841-11.16-8.134c0-3.504,2.861-6.365,8.694-6.365c2.551,0,5.187,0.586,7.123,1.712l-1.711,4.121
			c-1.879-1.009-3.729-1.515-5.44-1.515c-2.327,0-3.169,0.787-3.169,1.769c0,3,11.133,0.758,11.133,7.991
			c0,3.42-2.86,6.338-8.692,6.338C99.683,53.062,96.487,52.191,94.636,50.9z"/>
		<path fill="#FFFFFF" d="M129.909,48.378v4.292h-15.76V33.037h15.397v4.293h-9.898v3.31h8.721v4.147h-8.721v3.591H129.909z"/>
		<path fill="#FFFFFF" d="M132.992,33.037h5.554v15.227h9.364v4.407h-14.918V33.037z"/>
		<path fill="#FFFFFF" d="M165.855,48.378v4.292h-15.76V33.037h15.396v4.293h-9.9v3.31h8.724v4.147h-8.724v3.591H165.855z"/>
		<path fill="#FFFFFF" d="M167.93,42.853c0-5.973,4.569-10.207,10.797-10.207c3.617,0,6.532,1.32,8.438,3.7l-3.532,3.199
			c-1.232-1.486-2.746-2.297-4.628-2.297c-3.224,0-5.469,2.244-5.469,5.606c0,3.364,2.245,5.608,5.469,5.608
			c1.882,0,3.396-0.811,4.628-2.298l3.532,3.196c-1.906,2.383-4.821,3.702-8.438,3.702C172.499,53.062,167.93,48.824,167.93,42.853z
			"/>
		<path fill="#FFFFFF" d="M193.811,37.445h-6.028v-4.408h17.581v4.408h-6.002v15.226h-5.551V37.445z"/>
	</g>
	<g>
		<path fill="#FFFFFF" d="M102.177,249.613h5.554v19.634h-5.554V249.613z"/>
		<path fill="#FFFFFF" d="M129.408,269.247l-0.057-10.405l-5.048,8.469h-2.466l-5.02-8.188v10.125h-5.134v-19.633h4.573
			l6.897,11.328l6.731-11.328h4.569l0.055,19.633L129.408,269.247L129.408,269.247z"/>
		<path fill="#FFFFFF" d="M151.589,265.432h-8.302l-1.544,3.815h-5.664l8.666-19.633h5.465l8.694,19.633h-5.778L151.589,265.432z
			 M149.961,261.337l-2.524-6.28l-2.524,6.28H149.961z"/>
		<path fill="#FFFFFF" d="M173.625,259.009h4.908v8.134c-2.271,1.627-5.385,2.496-8.245,2.496c-6.252,0-10.823-4.236-10.823-10.209
			s4.571-10.207,10.936-10.207c3.673,0,6.646,1.262,8.58,3.59l-3.535,3.198c-1.346-1.487-2.885-2.187-4.764-2.187
			c-3.363,0-5.611,2.213-5.611,5.605c0,3.312,2.248,5.607,5.558,5.607c1.033,0,2.017-0.197,2.998-0.643L173.625,259.009
			L173.625,259.009z"/>
		<path fill="#FFFFFF" d="M197.822,264.955v4.292h-15.758v-19.634h15.393v4.294h-9.896v3.31h8.721v4.146h-8.721v3.592H197.822z"/>
	</g>
</g>
<g>
	<g>
		<path fill="#FFFFFF" d="M202.048,157.79h-45.827v44.843h-15.52V157.79H94.875v-14.535h45.826V98.168h15.52v45.087h45.827V157.79z"
			/>
	</g>
	<path fill="#FFFFFF" d="M150,231.312c-44.207,0-80.172-35.961-80.172-80.169c0-44.208,35.965-80.171,80.172-80.171
		s80.172,35.964,80.172,80.172C230.172,195.352,194.207,231.312,150,231.312z M150,80.047c-39.202,0-71.095,31.894-71.095,71.096
		c0,39.2,31.893,71.093,71.095,71.093s71.096-31.894,71.096-71.093C221.096,111.941,189.202,80.047,150,80.047z"/>
</g>
</svg>
