<?xml version="1.0" encoding="utf-8"?>
<!-- Generator: Adobe Illustrator 16.0.0, SVG Export Plug-In . SVG Version: 6.00 Build 0)  -->
<!DOCTYPE svg PUBLIC "-//W3C//DTD SVG 1.1//EN" "http://www.w3.org/Graphics/SVG/1.1/DTD/svg11.dtd">
<svg version="1.1" id="Layer_1" xmlns="http://www.w3.org/2000/svg" xmlns:xlink="http://www.w3.org/1999/xlink" x="0px" y="0px"
	 width="300px" height="302.285px" viewBox="0 0 300 302.285" enable-background="new 0 0 300 302.285" xml:space="preserve">
<g>
	<g>
		<path fill="#FFFFFF" d="M191.93,125.251h-35.342v34.582h-11.969v-34.582h-35.341v-11.21h35.341V79.271h11.969v34.771h35.342
			V125.251z"/>
	</g>
	<g>
		<path fill="#FFFFFF" d="M34.705,242.14l1.561-3.504c1.488,0.984,3.6,1.656,5.544,1.656c1.969,0,2.736-0.551,2.736-1.367
			c0-2.664-9.553-0.721-9.553-6.961c0-3,2.448-5.449,7.44-5.449c2.185,0,4.44,0.504,6.097,1.465l-1.464,3.527
			c-1.608-0.863-3.192-1.295-4.656-1.295c-1.992,0-2.713,0.672-2.713,1.512c0,2.568,9.529,0.648,9.529,6.84
			c0,2.93-2.448,5.426-7.44,5.426C39.025,243.989,36.289,243.245,34.705,242.14z"/>
		<path fill="#FFFFFF" d="M64.897,239.979v3.674H51.408v-16.803h13.178v3.674h-8.473v2.832h7.465v3.551h-7.465v3.072H64.897z"/>
		<path fill="#FFFFFF" d="M67.536,226.851h4.753v13.033h8.017v3.77h-12.77V226.851z"/>
		<path fill="#FFFFFF" d="M95.665,239.979v3.674H82.175v-16.803h13.178v3.674H86.88v2.832h7.465v3.551H86.88v3.072H95.665z"/>
		<path fill="#FFFFFF" d="M97.44,235.251c0-5.111,3.912-8.736,9.24-8.736c3.097,0,5.593,1.129,7.225,3.168l-3.024,2.736
			c-1.056-1.271-2.352-1.967-3.96-1.967c-2.76,0-4.681,1.92-4.681,4.799c0,2.881,1.921,4.801,4.681,4.801
			c1.608,0,2.904-0.695,3.96-1.967l3.024,2.736c-1.632,2.039-4.128,3.168-7.225,3.168C101.352,243.989,97.44,240.364,97.44,235.251z
			"/>
		<path fill="#FFFFFF" d="M119.592,230.62h-5.161v-3.77h15.05v3.77h-5.137v13.033h-4.752V230.62z"/>
		<path fill="#FFFFFF" d="M149.497,240.388h-7.105l-1.319,3.266h-4.849l7.417-16.803h4.68l7.442,16.803h-4.946L149.497,240.388z
			 M148.104,236.884l-2.16-5.377l-2.16,5.377H148.104z"/>
		<path fill="#FFFFFF" d="M173.09,226.851v16.803h-3.914l-7.416-8.953v8.953h-4.656v-16.803h3.912l7.416,8.953v-8.953H173.09z"/>
		<path fill="#FFFFFF" d="M183.43,226.851h4.754v16.803h-4.754V226.851z"/>
		<path fill="#FFFFFF" d="M206.736,243.653l-0.049-8.906l-4.32,7.25h-2.111l-4.297-7.01v8.666h-4.393v-16.803h3.912l5.904,9.697
			l5.762-9.697h3.912l0.047,16.803H206.736z"/>
		<path fill="#FFFFFF" d="M225.721,240.388h-7.105l-1.32,3.266h-4.848l7.416-16.803h4.68l7.441,16.803h-4.945L225.721,240.388z
			 M224.328,236.884l-2.16-5.377l-2.16,5.377H224.328z"/>
		<path fill="#FFFFFF" d="M244.584,234.892h4.199v6.961c-1.943,1.393-4.607,2.137-7.057,2.137c-5.352,0-9.264-3.625-9.264-8.738
			c0-5.111,3.912-8.736,9.359-8.736c3.145,0,5.689,1.08,7.346,3.072l-3.025,2.736c-1.152-1.271-2.471-1.871-4.08-1.871
			c-2.879,0-4.801,1.895-4.801,4.799c0,2.834,1.922,4.801,4.754,4.801c0.887,0,1.727-0.168,2.568-0.551V234.892z"/>
		<path fill="#FFFFFF" d="M265.295,239.979v3.674h-13.488v-16.803h13.178v3.674h-8.473v2.832h7.465v3.551h-7.465v3.072H265.295z"/>
	</g>
	<path fill="#FFFFFF" d="M151.791,181.952c-34.092,0-61.829-27.734-61.829-61.828c0-34.092,27.736-61.828,61.829-61.828
		c34.092,0,61.828,27.736,61.828,61.828C213.619,154.218,185.883,181.952,151.791,181.952z M151.791,65.296
		c-30.233,0-54.829,24.596-54.829,54.828s24.596,54.828,54.829,54.828c30.232,0,54.828-24.595,54.828-54.828
		S182.023,65.296,151.791,65.296z"/>
</g>
</svg>
