<?xml version="1.0" encoding="utf-8"?>
<!-- Generator: Adobe Illustrator 16.0.0, SVG Export Plug-In . SVG Version: 6.00 Build 0)  -->
<!DOCTYPE svg PUBLIC "-//W3C//DTD SVG 1.1//EN" "http://www.w3.org/Graphics/SVG/1.1/DTD/svg11.dtd">
<svg version="1.1" id="Layer_1" xmlns="http://www.w3.org/2000/svg" xmlns:xlink="http://www.w3.org/1999/xlink" x="0px" y="0px"
	 width="148.554px" height="133.676px" viewBox="0 0 148.554 133.676" enable-background="new 0 0 148.554 133.676"
	 xml:space="preserve">
<g>
	<path fill-rule="evenodd" clip-rule="evenodd" fill="#CFCFCF" d="M48.179,89.388c0.002-9.824,0.024-19.648-0.014-29.474
		c-0.009-2.357,0.167-4.15,3.275-4.431c14.015-1.261,23.221-9.69,29.146-21.507c4.058-8.093,6.521-16.995,9.556-25.586
		c1.499-4.244,3.077-8.56,8.457-8.386c5.333,0.172,9.228,3.827,9.558,8.669c0.64,9.365,0.901,18.953-0.396,28.208
		c-2.032,14.513-2.886,13.369,11.173,13.311c3.664-0.016,7.329-0.125,10.99-0.041c8.985,0.207,13.649,5.306,13.725,14.231
		c0.023,2.751,0.915,5.651,2.036,8.208c3.326,7.585,4.669,14.856-1.048,22.039c-0.953,1.198-1.126,3.31-1.062,4.975
		c0.217,5.551-1.429,10.04-6.017,13.504c-1.088,0.821-1.818,2.945-1.706,4.392c0.75,9.644-4.438,15.844-14.021,15.969
		c-10.654,0.139-21.346,0.481-31.958-0.219c-6.69-0.441-13.308-2.465-19.88-4.091c-5.946-1.471-11.721-3.689-17.705-4.94
		c-3.133-0.654-4.186-1.814-4.153-4.858C48.244,109.371,48.177,99.379,48.179,89.388z"/>
	<path fill-rule="evenodd" clip-rule="evenodd" fill="#CFCFCF" d="M0.071,89.448c0-9.988,0.082-19.979-0.039-29.966
		c-0.05-4.201,1.699-6.102,5.921-6.075c10.321,0.064,20.643,0.006,30.965-0.021c4.172-0.012,5.964,2.067,5.955,6.197
		c-0.044,20.145-0.025,40.289,0.026,60.433c0.011,4.168-1.971,6.147-6.065,6.14c-10.321-0.02-20.642-0.075-30.962-0.052
		c-4.23,0.01-5.916-2.042-5.871-6.189c0.111-10.154,0.036-20.311,0.036-30.466C0.048,89.448,0.06,89.448,0.071,89.448z"/>
</g>
</svg>
