<?xml version="1.0" encoding="utf-8"?>
<!-- Generator: Adobe Illustrator 16.0.0, SVG Export Plug-In . SVG Version: 6.00 Build 0)  -->
<!DOCTYPE svg PUBLIC "-//W3C//DTD SVG 1.1//EN" "http://www.w3.org/Graphics/SVG/1.1/DTD/svg11.dtd">
<svg version="1.1" id="Layer_1" xmlns="http://www.w3.org/2000/svg" xmlns:xlink="http://www.w3.org/1999/xlink" x="0px" y="0px"
	 width="148.554px" height="133.676px" viewBox="0 0 148.554 133.676" enable-background="new 0 0 148.554 133.676"
	 xml:space="preserve">
<g>
	<path fill-rule="evenodd" clip-rule="evenodd" fill="#3C3C3C" d="M100.375,44.288c-0.002,9.824-0.023,19.648,0.014,29.474
		c0.01,2.357-0.166,4.15-3.275,4.43c-14.015,1.261-23.22,9.69-29.146,21.507c-4.058,8.093-6.521,16.995-9.556,25.586
		c-1.499,4.244-3.077,8.561-8.457,8.386c-5.333-0.172-9.228-3.827-9.558-8.669c-0.64-9.365-0.901-18.952,0.396-28.207
		c2.032-14.514,2.886-13.369-11.173-13.312c-3.664,0.016-7.329,0.125-10.99,0.041C9.644,83.316,4.979,78.218,4.904,69.292
		c-0.023-2.751-0.915-5.651-2.036-8.208C-0.458,53.5-1.801,46.228,3.916,39.045c0.953-1.198,1.126-3.31,1.062-4.975
		c-0.217-5.551,1.429-10.04,6.017-13.504c1.088-0.821,1.818-2.945,1.706-4.392C11.95,6.532,17.139,0.332,26.722,0.207
		C37.376,0.068,48.067-0.275,58.68,0.425c6.69,0.441,13.308,2.465,19.879,4.091c5.946,1.471,11.721,3.689,17.705,4.94
		c3.133,0.654,4.186,1.814,4.153,4.858C100.31,24.304,100.376,34.296,100.375,44.288z"/>
	<path fill-rule="evenodd" clip-rule="evenodd" fill="#3C3C3C" d="M148.483,44.227c0,9.988-0.082,19.979,0.039,29.966
		c0.05,4.201-1.699,6.101-5.921,6.075c-10.321-0.064-20.644-0.006-30.965,0.021c-4.173,0.012-5.964-2.067-5.955-6.197
		c0.044-20.145,0.025-40.289-0.026-60.433c-0.011-4.168,1.971-6.147,6.065-6.14c10.321,0.02,20.642,0.075,30.962,0.052
		c4.23-0.01,5.916,2.042,5.871,6.189c-0.111,10.154-0.036,20.311-0.036,30.466C148.505,44.227,148.494,44.227,148.483,44.227z"/>
</g>
</svg>
