<?xml version="1.0" encoding="utf-8"?>
<!-- Generator: Adobe Illustrator 16.0.0, SVG Export Plug-In . SVG Version: 6.00 Build 0)  -->
<!DOCTYPE svg PUBLIC "-//W3C//DTD SVG 1.1//EN" "http://www.w3.org/Graphics/SVG/1.1/DTD/svg11.dtd">
<svg version="1.1" id="Layer_1" xmlns="http://www.w3.org/2000/svg" xmlns:xlink="http://www.w3.org/1999/xlink" x="0px" y="0px"
	 width="37.498px" height="37.498px" viewBox="0 0 37.498 37.498" enable-background="new 0 0 37.498 37.498" xml:space="preserve">
<path fill="#FFFFFF" d="M18.749,0C8.394,0,0,8.393,0,18.748c0,10.354,8.394,18.75,18.749,18.75c10.355,0,18.749-8.396,18.749-18.75
	C37.498,8.393,29.104,0,18.749,0z M31.175,12.533c-0.572,0.577-1.16,1.138-1.755,1.691c-0.116,0.107-0.171,0.201-0.169,0.359
	c0.064,3.247-0.854,6.201-2.714,8.85c-2.007,2.854-4.718,4.707-8.123,5.512c-1.66,0.393-3.339,0.481-5.037,0.301
	c-2.135-0.232-4.109-0.92-5.938-2.039c-0.041-0.023-0.079-0.053-0.117-0.082c-0.003-0.002,0-0.014,0.002-0.043
	c1.852,0.184,3.632-0.094,5.328-0.867c0.695-0.316,1.349-0.703,1.969-1.205c-2.29-0.199-3.82-1.354-4.671-3.516
	c0.773,0.123,1.481,0.113,2.208-0.082c-2.886-0.727-4.025-3.267-3.933-4.987c0.687,0.341,1.393,0.572,2.229,0.6
	c-1.249-0.908-1.973-2.073-2.164-3.534c-0.144-1.104,0.063-2.156,0.641-3.154c2.716,3.193,6.15,4.954,10.35,5.247
	c-0.03-0.272-0.063-0.521-0.085-0.771c-0.204-2.326,1.278-4.479,3.448-5.156c1.859-0.58,3.543-0.196,4.996,1.109
	c0.178,0.16,0.317,0.209,0.561,0.15c0.927-0.227,1.809-0.559,2.641-1.025c0.059-0.033,0.123-0.059,0.227-0.108
	c-0.389,1.171-1.094,2.042-2.077,2.701c0.008,0.021,0.016,0.041,0.022,0.062c0.45-0.098,0.906-0.176,1.35-0.299
	c0.443-0.121,0.875-0.287,1.371-0.453C31.528,12.067,31.378,12.328,31.175,12.533z"/>
</svg>
