<?xml version="1.0" encoding="utf-8"?>
<!-- Generator: Adobe Illustrator 16.0.0, SVG Export Plug-In . SVG Version: 6.00 Build 0)  -->
<!DOCTYPE svg PUBLIC "-//W3C//DTD SVG 1.1//EN" "http://www.w3.org/Graphics/SVG/1.1/DTD/svg11.dtd">
<svg version="1.1" id="Layer_1" xmlns="http://www.w3.org/2000/svg" xmlns:xlink="http://www.w3.org/1999/xlink" x="0px" y="0px"
	 width="497px" height="69.791px" viewBox="0 0 497 69.791" enable-background="new 0 0 497 69.791" xml:space="preserve">
<g>
	<path fill="#FFFFFF" d="M22.837,45.967c0,4.38,0.859,7.717,2.581,10.006c1.72,2.29,4.22,3.434,7.498,3.434
		c3.506,0,6.144-1.128,7.913-3.384c1.77-2.259,2.655-5.609,2.655-10.056V13.438c0-2.887-0.269-5.225-0.805-7.013
		c-0.535-1.782-1.598-3.407-3.19-4.868H66.32c-1.397,1.3-2.395,2.695-2.995,4.188c-0.6,1.495-0.901,4.059-0.901,7.693v43.777
		c0,3.506,0.301,6.044,0.901,7.617c0.6,1.577,1.598,3.029,2.995,4.358H43.873v-7.154c-2.727,3.083-5.666,4.142-8.813,5.585
		c-3.149,1.444-6.72,2.169-10.713,2.169c-3.408,0-6.427-0.555-9.057-1.656c-2.629-1.104-4.902-2.744-6.817-4.918
		c-1.656-1.948-2.833-2.999-3.531-5.565c-0.698-2.562-1.046-6.263-1.046-11.101V13.438c0-3.634-0.292-6.198-0.876-7.693
		C2.435,4.253,1.428,2.858,0,1.558h26.731c-1.427,1.33-2.433,2.769-3.018,4.311c-0.585,1.542-0.876,4.065-0.876,7.57V45.967z"/>
	<path fill="#FFFFFF" d="M70.804,69.191c1.72-1.848,2.928-3.836,3.628-5.964c0.697-2.123,1.048-5.785,1.048-10.98V15.924
		c0-3.571-0.416-6.332-1.243-8.278c-0.827-1.949-2.199-3.979-4.115-6.088h20.841l30.677,41.389V16.264
		c0-3.277-0.373-5.997-1.119-8.156c-0.747-2.16-1.965-4.343-3.652-6.55H136.2c-1.396,2.306-2.411,4.57-3.043,6.792
		c-0.634,2.226-0.95,4.959-0.95,8.205v2.778V69.69c-10.912-0.499-17.822-5.22-25.125-14.764c-0.261-0.357-0.455-0.617-0.584-0.78
		L86.045,27.512v28.73c0,3.44,0.341,6.061,1.022,7.862c0.682,1.8,1.833,3.5,3.458,5.086H70.804z"/>
	<path fill="#FFFFFF" d="M168.235,69.596c-3.761,0-5.754-0.429-7.815-1.352c-2.062-0.928-3.79-2.004-5.186-3.237
		c-3.183-2.856-5.617-7.385-7.304-13.588c-0.228-0.906-0.406-1.605-0.536-2.092l-9.982-35.498c-0.032-0.096-0.081-0.259-0.146-0.486
		c-0.974-3.963-2.921-7.89-5.843-11.786h21.23l12.271,46.698l7.401-28.05c0.421-1.717,0.738-3.169,0.949-4.356
		c0.211-1.185,0.316-2.183,0.316-2.993c0-2.565-1.2-6.087-3.603-10.566c-0.164-0.327-0.292-0.571-0.39-0.733h21.23
		c-0.032,0.554-0.072,1.128-0.121,1.729c-0.05,0.602-0.074,0.934-0.074,0.999c0,2.435,0.39,4.916,1.169,7.449
		c0.13,0.389,0.211,0.667,0.245,0.827l9.593,35.694l8.375-32.82c0.259-1.006,0.454-1.988,0.583-2.948
		c0.129-0.956,0.195-1.873,0.195-2.75c0-1.752-0.795-3.975-2.385-6.67c-0.391-0.649-0.682-1.153-0.878-1.51h16.849l-18.357,68.038
		c-4.874,0-6.646-0.314-8.935-1.206c-2.289-0.89-4.131-1.956-5.526-3.189c-2.792-2.37-5-6.477-6.623-12.32
		c-0.228-0.875-0.421-1.558-0.583-2.046l-5.648-19.816L168.235,69.596z"/>
	<path fill="#FFFFFF" d="M211.109,69.191c1.525-1.782,2.775-3.485,3.749-5.111c0.974-1.619,1.753-3.277,2.337-4.967l13.464-45.379
		c0.097-0.295,0.243-0.699,0.438-1.22c0.714-1.85,1.072-3.326,1.072-4.43c0-1.007-0.236-1.98-0.706-2.923
		c-0.471-0.939-1.34-2.142-2.605-3.603h23.908l19.185,55.462c0.845,2.435,1.908,4.693,3.189,6.771
		c1.283,2.076,2.704,3.878,4.262,5.4h-29.314c1.493-1.685,2.468-2.998,2.922-3.941c0.453-0.943,0.682-1.948,0.682-3.021
		c0-0.648-0.042-1.266-0.122-1.85c-0.081-0.583-0.202-1.086-0.364-1.509l-3.409-9.737h-17.942l-3.164,9.299
		c-0.391,1.202-0.642,2.08-0.755,2.63c-0.114,0.552-0.171,1.04-0.171,1.461c0,1.169,0.268,2.306,0.805,3.409
		c0.536,1.103,1.338,2.188,2.41,3.259H211.109z M235.163,39.686h11.467l-6.916-20.842L235.163,39.686z"/>
	<path fill="#FFFFFF" d="M275.851,50.703c4.317,2.606,9.228,5.689,12.635,6.851c3.408,1.16,6.719,1.739,9.935,1.739
		c3.05,0,5.523-0.684,7.426-2.052c1.896-1.367,2.846-3.146,2.846-5.338c0-3.412-3.746-6.886-11.247-10.428
		c-2.24-1.062-3.977-1.897-5.21-2.512c-4.643-2.379-8.18-5.229-10.613-8.546c-2.435-3.313-3.654-6.965-3.654-10.959
		c0-5.858,2.257-10.565,6.77-14.123C289.249,1.779,295.27,0,302.802,0c2.791,0,5.559,0.257,8.303,0.772
		c2.741,0.515,8.607,2.662,11.625,3.722l-2.591,10.964c-3.117-1.577-6.196-3.756-8.449-4.499c-2.257-0.742-4.246-1.11-5.964-1.11
		c-2.601,0-4.732,0.628-6.404,1.884c-1.674,1.255-2.51,2.816-2.51,4.681c0,2.835,3.881,6.198,11.64,10.093
		c3.049,1.546,5.453,2.783,7.205,3.716c3.862,2.127,6.728,4.667,8.594,7.629c1.869,2.961,2.8,6.487,2.8,10.573
		c0,6.344-2.442,11.475-7.327,15.402c-4.887,3.929-11.32,5.892-19.308,5.892c-3.146,0-6.361-0.297-9.641-0.892
		c-3.278-0.596-4.971-2.088-9.1-3.996L275.851,50.703z"/>
	<path fill="#FFFFFF" d="M360.073,57.215c0,3.506,0.299,6.044,0.899,7.617c0.603,1.577,1.6,3.029,2.996,4.358h-26.732
		c1.395-1.329,2.394-2.781,2.991-4.358c0.604-1.573,0.904-4.111,0.904-7.617V13.344c-0.423-0.066-0.868-0.115-1.34-0.149
		c-0.471-0.031-1.193-0.047-2.168-0.047c-2.208,0-4.415,0.3-6.62,0.901c-2.209,0.601-3.972,1.246-6.438,2.512l3.418-15.002h49.521
		l-3.457,15.292c-1.071-1.266-2.409-2.2-4.019-2.801c-1.605-0.601-3.561-0.901-5.864-0.901c-0.392,0-1.205,0.032-2.437,0.095
		c-0.681,0.035-1.233,0.067-1.655,0.101V57.215z"/>
	<path fill="#FFFFFF" d="M382.007,69.191c1.43-1.329,2.436-2.781,3.018-4.358c0.585-1.573,0.878-4.111,0.878-7.617V13.438
		c0-3.634-0.293-6.198-0.878-7.693c-0.582-1.493-1.588-2.887-3.018-4.188h39.588v14.071c-1.525-1.429-2.987-2.435-4.383-3.018
		s-3.146-0.876-5.258-0.876h-6.913v16.847h12.949v13.003c-0.778-1.104-1.783-1.948-3.018-2.534
		c-1.233-0.584-2.646-0.877-4.236-0.877h-5.695v20.357c1.59,0.322,2.975,0.549,4.161,0.68c1.186,0.131,2.297,0.195,3.336,0.195
		c3.701,0,6.875-0.391,9.52-1.168c2.646-0.78,5.121-2.045,7.427-3.802l-3.604,14.754H382.007z"/>
	<path fill="#FFFFFF" d="M430.972,69.191c1.428-1.329,2.437-2.781,3.02-4.358c0.584-1.573,0.878-4.111,0.878-7.617V13.438
		c0-3.504-0.294-6.028-0.878-7.57c-0.583-1.542-1.592-2.98-3.02-4.311h27.024c12.302,0,21.88,2.993,28.729,8.985
		C493.575,16.532,497,24.851,497,35.498c0,5.488-0.982,10.486-2.946,14.996c-1.965,4.515-4.846,8.426-8.643,11.735
		c-2.793,2.436-6.135,4.205-10.031,5.31c-3.897,1.104-8.829,1.652-14.802,1.652H430.972z M453.419,58.334
		c1.104,0.293,2.167,0.513,3.189,0.66c1.024,0.142,2.055,0.217,3.092,0.217c5.323,0,9.616-2.102,12.88-6.305
		c3.263-4.204,4.894-9.814,4.894-16.824c0-7.207-1.59-12.879-4.772-17.018c-3.182-4.142-7.516-6.208-13.001-6.208
		c-0.94,0-1.941,0.046-2.993,0.144c-1.056,0.098-2.151,0.242-3.288,0.438V58.334z"/>
</g>
</svg>
